<?xml version="1.0" encoding="utf-8"?>
<!-- Generator: Adobe Illustrator 26.3.1, SVG Export Plug-In . SVG Version: 6.00 Build 0)  -->
<svg version="1.1" id="Слой_1" xmlns="http://www.w3.org/2000/svg" xmlns:xlink="http://www.w3.org/1999/xlink" x="0px" y="0px"
	 viewBox="0 0 53.6 53.7" style="enable-background:new 0 0 53.6 53.7;" xml:space="preserve">
<style type="text/css">
	.st1{fill:#16223A;}
</style>
<g>
	<path class="st1" d="M46.9,0H6.7C3,0,0,3,0,6.7v24.8h7.1c1.1,0,2-0.5,2.6-1.5l8.2-15.1c1.3-2.2,3.2-3.3,5.7-3.3h12.9
		c1.7,0,2.9,0.7,3.8,2c0.8,1.3,0.8,2.7,0.2,3.8l-9.1,16.7c-0.3,0.5-0.9,0.9-1.5,0.9c-0.9,0-1.7-0.8-1.7-1.7c0-0.3,0.1-0.5,0.2-0.8
		c0,0,0-0.1,0.1-0.1l9-16.5c0.1-0.3,0.1-0.5,0-0.7c-0.2-0.2-0.4-0.4-0.7-0.4H23.5c-1.1,0-2,0.5-2.6,1.5l-8.2,15.1
		c-1.2,2.2-3.1,3.3-5.7,3.4H0V47c0,3.7,3,6.7,6.7,6.7h40.2c3.7,0,6.7-3,6.7-6.7V22.5h-7.1c-1.1,0-2,0.5-2.6,1.5l-8.2,15.1
		c-1.2,2.1-3.1,3.2-5.7,3.2H17.1c-1.7,0-2.9-0.7-3.8-2c-0.8-1.3-0.8-2.7-0.2-3.8l9.1-16.7c0.3-0.5,0.9-0.9,1.5-0.9
		c0.9,0,1.7,0.8,1.7,1.7c0,0.3-0.1,0.5-0.2,0.8c0,0,0,0.1-0.1,0.1l-9,16.5c-0.1,0.3-0.1,0.5,0,0.7c0.2,0.2,0.4,0.4,0.7,0.4h13.3
		c1.1,0,2-0.5,2.6-1.5l8.2-15.1c1.2-2.2,3.1-3.3,5.7-3.4h7V6.8C53.7,3.1,50.6,0,46.9,0z"/>
</g>
</svg>
